<?xml version="1.0" encoding="UTF-8" standalone="no"?>
<svg
   width="160"
   height="160"
   viewBox="0 0 42.333327 42.33333"
   version="1.1"
   id="svg8"
   style="shape-rendering:crispEdges"
   xmlns="http://www.w3.org/2000/svg"
   xmlns:svg="http://www.w3.org/2000/svg"
   xmlns:rdf="http://www.w3.org/1999/02/22-rdf-syntax-ns#"
   xmlns:cc="http://creativecommons.org/ns#"
   xmlns:dc="http://purl.org/dc/elements/1.1/">
  <defs
     id="defs2">
    <style
       id="style5010">.cls-1{fill:#fff;}.cls-2{fill:#335899;}.cls-3{fill:#fefefe;}.cls-4{fill:#335898;}.cls-5{fill:#34599a;}.cls-6{fill:#355999;}.cls-7{fill:#345899;}.cls-8{fill:#fdfdfe;}.cls-9{fill:#91b7d2;}.cls-10{fill:#345898;}.cls-11{fill:#c0c2d4;}.cls-12{fill:#f9fafb;}.cls-13{fill:#abcee1;}.cls-14{fill:#3a5c9b;}.cls-15{fill:#45629d;}.cls-16{fill:#4a669f;}.cls-17{fill:#fcfcfd;}.cls-18{fill:#f6f9f9;}.cls-19{fill:#afcddd;}.cls-20{fill:#fafbfc;}</style>
  </defs>
  <metadata
     id="metadata5">
    <rdf:RDF>
      <cc:Work
         rdf:about="">
        <dc:format>image/svg+xml</dc:format>
        <dc:type
           rdf:resource="http://purl.org/dc/dcmitype/StillImage" />
      </cc:Work>
    </rdf:RDF>
  </metadata>
  <g
     transform="translate(1.0290694,4.0113276)"
     id="g8128"
     style="display:none">
    <rect
       style="opacity:1;vector-effect:none;fill:#151515;fill-opacity:1;stroke:none;stroke-width:7.99627;stroke-linecap:butt;stroke-linejoin:miter;stroke-miterlimit:4;stroke-dasharray:none;stroke-dashoffset:0;stroke-opacity:1;shape-rendering:crispEdges"
       id="rect8126"
       width="126.99998"
       height="42.333328"
       x="-1.0290694"
       y="-4.0113282" />
  </g>
  <g
     transform="translate(1.0290694,4.0113276)"
     style="display:none"
     id="g4686">
    <g
       style="stroke:#ffffff;stroke-width:1.32292;stroke-linejoin:round;stroke-miterlimit:4;stroke-dasharray:none;stroke-opacity:0.8"
       id="g4662">
      <text
         id="text4656"
         y="35.70018"
         x="-0.2132709"
         style="font-style:normal;font-variant:normal;font-weight:bold;font-stretch:normal;font-size:6.35px;line-height:1.25;font-family:Arial;-inkscape-font-specification:'Arial, Bold';font-variant-ligatures:normal;font-variant-caps:normal;font-variant-numeric:normal;font-feature-settings:normal;text-align:start;letter-spacing:0px;word-spacing:0px;writing-mode:lr-tb;text-anchor:start;display:inline;fill:#000000;fill-opacity:1;stroke:#ffffff;stroke-width:1.32292;stroke-linejoin:round;stroke-miterlimit:4;stroke-dasharray:none;stroke-opacity:0.8;shape-rendering:crispEdges"
         xml:space="preserve"><tspan
           style="font-style:normal;font-variant:normal;font-weight:normal;font-stretch:normal;font-size:5.64444px;font-family:'Fengardo Neue';-inkscape-font-specification:'Fengardo Neue, Normal';font-variant-ligatures:normal;font-variant-caps:normal;font-variant-numeric:normal;font-feature-settings:normal;text-align:start;writing-mode:lr-tb;text-anchor:start;stroke:#ffffff;stroke-width:1.32292;stroke-linejoin:round;stroke-miterlimit:4;stroke-dasharray:none;stroke-opacity:0.8"
           y="35.70018"
           x="-0.2132709"
           id="tspan4654">L'Autre est une chance. </tspan></text>
      <text
         id="text4660"
         y="35.70018"
         x="68.411812"
         style="font-style:normal;font-variant:normal;font-weight:bold;font-stretch:normal;font-size:4.23333px;line-height:1.25;font-family:Arial;-inkscape-font-specification:'Arial, Bold';font-variant-ligatures:normal;font-variant-caps:normal;font-variant-numeric:normal;font-feature-settings:normal;text-align:start;letter-spacing:0px;word-spacing:0px;writing-mode:lr-tb;text-anchor:start;display:inline;fill:#000000;fill-opacity:1;stroke:#ffffff;stroke-width:1.32292;stroke-linejoin:round;stroke-miterlimit:4;stroke-dasharray:none;stroke-opacity:0.8;shape-rendering:crispEdges"
         xml:space="preserve"><tspan
           style="font-style:normal;font-variant:normal;font-weight:normal;font-stretch:normal;font-size:5.64444px;font-family:'Fengardo Neue';-inkscape-font-specification:'Fengardo Neue, Normal';font-variant-ligatures:normal;font-variant-caps:normal;font-variant-numeric:normal;font-feature-settings:normal;text-align:start;writing-mode:lr-tb;text-anchor:start;stroke:#ffffff;stroke-width:1.32292;stroke-linejoin:round;stroke-miterlimit:4;stroke-dasharray:none;stroke-opacity:0.8"
           y="35.70018"
           x="68.411812"
           id="tspan4658">www.lesgrandsvoisins.fr</tspan></text>
    </g>
    <text
       xml:space="preserve"
       style="font-style:normal;font-variant:normal;font-weight:normal;font-stretch:normal;font-size:4.23333px;line-height:1.25;font-family:Lack;-inkscape-font-specification:'Lack, Normal';font-variant-ligatures:normal;font-variant-caps:normal;font-variant-numeric:normal;font-feature-settings:normal;text-align:start;letter-spacing:0px;word-spacing:0px;writing-mode:lr-tb;text-anchor:start;fill:#000000;fill-opacity:1;stroke:none;stroke-width:0.264583;shape-rendering:crispEdges"
       x="0.44986546"
       y="26.940434"
       id="text4664" />
    <text
       xml:space="preserve"
       style="font-style:normal;font-variant:normal;font-weight:bold;font-stretch:normal;font-size:4.24853px;line-height:1.25;font-family:Arial;-inkscape-font-specification:'Arial, Bold';font-variant-ligatures:normal;font-variant-caps:normal;font-variant-numeric:normal;font-feature-settings:normal;text-align:start;letter-spacing:0px;word-spacing:0px;writing-mode:lr-tb;text-anchor:start;fill:#000000;fill-opacity:1;stroke:none;stroke-width:0.265533;shape-rendering:crispEdges"
       x="0.59339899"
       y="27.86882"
       id="text4668"><tspan
         id="tspan4666"
         x="0.59339899"
         y="31.695704"
         style="font-style:normal;font-variant:normal;font-weight:normal;font-stretch:normal;font-size:5.70011px;font-family:Lack;-inkscape-font-specification:'Lack, Normal';font-variant-ligatures:normal;font-variant-caps:normal;font-variant-numeric:normal;font-feature-settings:normal;text-align:start;writing-mode:lr-tb;text-anchor:start;stroke-width:0.265533" /></text>
    <text
       xml:space="preserve"
       style="font-style:normal;font-variant:normal;font-weight:bold;font-stretch:normal;font-size:4.23333px;line-height:1.25;font-family:Arial;-inkscape-font-specification:'Arial, Bold';font-variant-ligatures:normal;font-variant-caps:normal;font-variant-numeric:normal;font-feature-settings:normal;text-align:start;letter-spacing:0px;word-spacing:0px;writing-mode:lr-tb;text-anchor:start;display:inline;fill:#000000;fill-opacity:1;stroke:none;stroke-width:0.264583;shape-rendering:crispEdges"
       x="13.774296"
       y="35.63726"
       id="text4672"><tspan
         id="tspan4670"
         x="13.774296"
         y="39.450455"
         style="font-style:normal;font-variant:normal;font-weight:normal;font-stretch:normal;font-size:5.64444px;font-family:Lack;-inkscape-font-specification:'Lack, Normal';font-variant-ligatures:normal;font-variant-caps:normal;font-variant-numeric:normal;font-feature-settings:normal;text-align:start;writing-mode:lr-tb;text-anchor:start;stroke-width:0.264583" /></text>
    <flowRoot
       transform="matrix(0.26458332,0,0,0.26458332,-1.0290694,-0.67799616)"
       style="font-style:normal;font-variant:normal;font-weight:bold;font-stretch:normal;font-size:16px;line-height:1.25;font-family:Arial;-inkscape-font-specification:'Arial, Bold';font-variant-ligatures:normal;font-variant-caps:normal;font-variant-numeric:normal;font-feature-settings:normal;text-align:start;letter-spacing:0px;word-spacing:0px;writing-mode:lr-tb;text-anchor:start;fill:#000000;fill-opacity:1;stroke:none"
       id="flowRoot4684"
       xml:space="preserve"><flowRegion
         id="flowRegion4680"><rect
           y="114.75373"
           x="-41.471584"
           height="82.943169"
           width="554.13098"
           id="rect4678" /></flowRegion><flowPara
         id="flowPara4682" /></flowRoot>
    <text
       id="text6552-4"
       y="27.304358"
       x="-0.15603679"
       style="font-style:normal;font-variant:normal;font-weight:bold;font-stretch:normal;font-size:6.22542px;line-height:1.25;font-family:Arial;-inkscape-font-specification:'Arial, Bold';font-variant-ligatures:normal;font-variant-caps:normal;font-variant-numeric:normal;font-feature-settings:normal;text-align:start;letter-spacing:0px;word-spacing:0px;writing-mode:lr-tb;text-anchor:start;display:inline;fill:#000000;fill-opacity:1;stroke:#ffffff;stroke-width:1.32292;stroke-linejoin:round;stroke-miterlimit:4;stroke-dasharray:none;stroke-opacity:0.8;shape-rendering:crispEdges"
       xml:space="preserve"><tspan
         style="font-style:normal;font-variant:normal;font-weight:bold;font-stretch:normal;font-size:6.22542px;line-height:3.89089px;font-family:Arial;-inkscape-font-specification:'Arial, Bold';font-variant-ligatures:normal;font-variant-caps:normal;font-variant-numeric:normal;font-feature-settings:normal;text-align:start;writing-mode:lr-tb;text-anchor:start;stroke:#ffffff;stroke-width:1.32292;stroke-linejoin:round;stroke-miterlimit:4;stroke-dasharray:none;stroke-opacity:0.8"
         y="27.304358"
         x="-0.15603679"
         id="tspan6550-8">Discussions - Arts plastiques - Numérique</tspan></text>
  </g>
  <g
     id="g6562"
     style="display:none"
     transform="translate(1.0290694,4.0113276)">
    <g
       id="g4652">
      <text
         xml:space="preserve"
         style="font-style:normal;font-variant:normal;font-weight:bold;font-stretch:normal;font-size:6.35px;line-height:1.25;font-family:Arial;-inkscape-font-specification:'Arial, Bold';font-variant-ligatures:normal;font-variant-caps:normal;font-variant-numeric:normal;font-feature-settings:normal;text-align:start;letter-spacing:0px;word-spacing:0px;writing-mode:lr-tb;text-anchor:start;display:inline;fill:#000000;fill-opacity:1;stroke:none;stroke-width:0.079375;stroke-miterlimit:4;stroke-dasharray:none;stroke-opacity:1;shape-rendering:crispEdges"
         x="-0.2132709"
         y="35.70018"
         id="text6544"><tspan
           id="tspan6542"
           x="-0.2132709"
           y="35.70018"
           style="font-style:normal;font-variant:normal;font-weight:normal;font-stretch:normal;font-size:5.64444px;font-family:'Fengardo Neue';-inkscape-font-specification:'Fengardo Neue, Normal';font-variant-ligatures:normal;font-variant-caps:normal;font-variant-numeric:normal;font-feature-settings:normal;text-align:start;writing-mode:lr-tb;text-anchor:start;stroke:none;stroke-width:0.079375;stroke-miterlimit:4;stroke-dasharray:none;stroke-opacity:1">L'Autre est une chance. </tspan></text>
      <text
         xml:space="preserve"
         style="font-style:normal;font-variant:normal;font-weight:bold;font-stretch:normal;font-size:4.23333px;line-height:1.25;font-family:Arial;-inkscape-font-specification:'Arial, Bold';font-variant-ligatures:normal;font-variant-caps:normal;font-variant-numeric:normal;font-feature-settings:normal;text-align:start;letter-spacing:0px;word-spacing:0px;writing-mode:lr-tb;text-anchor:start;display:inline;fill:#000000;fill-opacity:1;stroke:none;stroke-width:0.079375;stroke-miterlimit:10.3;stroke-dasharray:none;stroke-opacity:1;shape-rendering:crispEdges"
         x="68.411812"
         y="35.70018"
         id="text6548"><tspan
           id="tspan6546"
           x="68.411812"
           y="35.70018"
           style="font-style:normal;font-variant:normal;font-weight:normal;font-stretch:normal;font-size:5.64444px;font-family:'Fengardo Neue';-inkscape-font-specification:'Fengardo Neue, Normal';font-variant-ligatures:normal;font-variant-caps:normal;font-variant-numeric:normal;font-feature-settings:normal;text-align:start;writing-mode:lr-tb;text-anchor:start;stroke:none;stroke-width:0.079375;stroke-miterlimit:10.3;stroke-dasharray:none;stroke-opacity:1">www.lesgrandsvoisins.fr</tspan></text>
    </g>
    <text
       id="text6532"
       y="26.940434"
       x="0.44986546"
       style="font-style:normal;font-variant:normal;font-weight:normal;font-stretch:normal;font-size:4.23333px;line-height:1.25;font-family:Lack;-inkscape-font-specification:'Lack, Normal';font-variant-ligatures:normal;font-variant-caps:normal;font-variant-numeric:normal;font-feature-settings:normal;text-align:start;letter-spacing:0px;word-spacing:0px;writing-mode:lr-tb;text-anchor:start;fill:#000000;fill-opacity:1;stroke:none;stroke-width:0.264583;shape-rendering:crispEdges"
       xml:space="preserve" />
    <text
       id="text6536"
       y="27.86882"
       x="0.59339899"
       style="font-style:normal;font-variant:normal;font-weight:bold;font-stretch:normal;font-size:4.24853px;line-height:1.25;font-family:Arial;-inkscape-font-specification:'Arial, Bold';font-variant-ligatures:normal;font-variant-caps:normal;font-variant-numeric:normal;font-feature-settings:normal;text-align:start;letter-spacing:0px;word-spacing:0px;writing-mode:lr-tb;text-anchor:start;fill:#000000;fill-opacity:1;stroke:none;stroke-width:0.265533;shape-rendering:crispEdges"
       xml:space="preserve"><tspan
         style="font-style:normal;font-variant:normal;font-weight:normal;font-stretch:normal;font-size:5.70011px;font-family:Lack;-inkscape-font-specification:'Lack, Normal';font-variant-ligatures:normal;font-variant-caps:normal;font-variant-numeric:normal;font-feature-settings:normal;text-align:start;writing-mode:lr-tb;text-anchor:start;stroke-width:0.265533"
         y="31.695704"
         x="0.59339899"
         id="tspan6534" /></text>
    <text
       id="text6540"
       y="35.63726"
       x="13.774296"
       style="font-style:normal;font-variant:normal;font-weight:bold;font-stretch:normal;font-size:4.23333px;line-height:1.25;font-family:Arial;-inkscape-font-specification:'Arial, Bold';font-variant-ligatures:normal;font-variant-caps:normal;font-variant-numeric:normal;font-feature-settings:normal;text-align:start;letter-spacing:0px;word-spacing:0px;writing-mode:lr-tb;text-anchor:start;display:inline;fill:#000000;fill-opacity:1;stroke:none;stroke-width:0.264583;shape-rendering:crispEdges"
       xml:space="preserve"><tspan
         style="font-style:normal;font-variant:normal;font-weight:normal;font-stretch:normal;font-size:5.64444px;font-family:Lack;-inkscape-font-specification:'Lack, Normal';font-variant-ligatures:normal;font-variant-caps:normal;font-variant-numeric:normal;font-feature-settings:normal;text-align:start;writing-mode:lr-tb;text-anchor:start;stroke-width:0.264583"
         y="39.450455"
         x="13.774296"
         id="tspan6538" /></text>
    <text
       id="text6552"
       y="27.304356"
       x="-0.15603679"
       style="font-style:normal;font-variant:normal;font-weight:bold;font-stretch:normal;font-size:6.22542px;line-height:1.25;font-family:Arial;-inkscape-font-specification:'Arial, Bold';font-variant-ligatures:normal;font-variant-caps:normal;font-variant-numeric:normal;font-feature-settings:normal;text-align:start;letter-spacing:0px;word-spacing:0px;writing-mode:lr-tb;text-anchor:start;display:inline;fill:#000000;fill-opacity:1;stroke:none;stroke-width:0.129696;stroke-miterlimit:4;stroke-dasharray:none;stroke-opacity:1;shape-rendering:crispEdges"
       xml:space="preserve"><tspan
         style="font-style:normal;font-variant:normal;font-weight:bold;font-stretch:normal;font-size:6.22542px;line-height:3.89089px;font-family:Arial;-inkscape-font-specification:'Arial, Bold';font-variant-ligatures:normal;font-variant-caps:normal;font-variant-numeric:normal;font-feature-settings:normal;text-align:start;writing-mode:lr-tb;text-anchor:start;stroke:none;stroke-width:0.129696;stroke-miterlimit:4;stroke-dasharray:none;stroke-opacity:1"
         y="27.304356"
         x="-0.15603679"
         id="tspan6550">Discussions - Arts plastiques - Numérique</tspan></text>
    <flowRoot
       xml:space="preserve"
       id="flowRoot6560"
       style="font-style:normal;font-variant:normal;font-weight:bold;font-stretch:normal;font-size:16px;line-height:1.25;font-family:Arial;-inkscape-font-specification:'Arial, Bold';font-variant-ligatures:normal;font-variant-caps:normal;font-variant-numeric:normal;font-feature-settings:normal;text-align:start;letter-spacing:0px;word-spacing:0px;writing-mode:lr-tb;text-anchor:start;fill:#000000;fill-opacity:1;stroke:none"
       transform="matrix(0.26458332,0,0,0.26458332,-1.0290694,-0.67799616)"><flowRegion
         id="flowRegion6556"><rect
           id="rect6554"
           width="554.13098"
           height="82.943169"
           x="-41.471584"
           y="114.75373" /></flowRegion><flowPara
         id="flowPara6558" /></flowRoot>
  </g>
  <g
     transform="translate(1.0290694,4.0113276)"
     id="g6666"
     style="display:none">
    <g
       style="stroke:#ffffff;stroke-width:2.11445;stroke-linejoin:round;stroke-miterlimit:4;stroke-dasharray:none;stroke-opacity:0.8"
       id="g6664"
       transform="matrix(1.0010471,0,0,1.0010471,8.0059727e-4,-0.54938596)">
      <path
         style="display:inline;fill:#335898;stroke:#ffffff;stroke-width:2.11445;stroke-linejoin:round;stroke-miterlimit:4;stroke-dasharray:none;stroke-opacity:0.8;shape-rendering:crispEdges"
         d="m 117.2139,1.401637 c -0.46285,-0.00272 -0.73658,0.2327952 -0.84613,0.7805322 a 20.098296,20.098296 0 0 0 -0.29217,2.6288732 c -0.0585,1.9280334 -0.0292,3.8272459 -0.0292,5.7260646 a 4.8785099,4.8785099 0 0 1 -0.087,1.110089 c -0.60743,-0.723162 -1.27134,-2.3345297 -1.59629,-3.9259641 a 11.801906,11.801906 0 0 0 -0.0106,-0.017886 h 0.006 c -0.002,-0.00975 -0.004,-0.019519 -0.006,-0.029273 0.008,0.0021 0.0151,0.00712 0.0228,0.010277 -0.26127,-0.7818868 -0.55066,-1.535935 -0.81143,-2.3182876 -0.2629,-0.7887406 -0.58383,-1.8694594 -1.1681,-2.6874129 l -0.26293,-0.3214259 c -0.23369,-0.2921261 -0.49662,-0.2920684 -0.81795,0.029273 a 3.6515789,3.6515789 0 0 0 -0.23415,0.350697 v 0.05854 a 9.932294,9.932294 0 0 1 0,4.1481996 c 0,0.1460621 -0.0292,0.2919027 -0.0292,0.4379651 h 5.3e-4 c -2.1e-4,7.166e-4 -3.2e-4,0.00146 -5.3e-4,0.00221 -2e-5,0.4666792 3.8e-4,0.9333982 -0.0285,1.4000778 -0.20452,2.453859 -0.4384,4.878261 -0.6429,7.332119 a 8.3256007,8.3256007 0 0 0 -0.0875,0.847205 c 0.0293,0.847169 0.26328,1.08122 1.28569,1.285713 l 0.47374,-0.473742 a 0.75952848,0.75952848 0 0 0 0.0228,-0.08132 v 0.05852 l 0.004,-0.0038 c 0.0137,-0.130177 0.0311,-0.259793 0.0466,-0.389725 0.13571,-2.381496 0.2491,-4.763647 0.38754,-7.17276 a 1.0516549,1.0516549 0 0 1 0.0586,-0.4092386 c 0,-0.058433 0.0871,-0.1458648 0.14582,-0.1750772 a 0.29212634,0.29212634 0 0 1 0.20486,0.1170794 l 1.54808,4.6447064 -0.0781,-0.02984 c 0.0165,0.01952 0.0316,0.03979 0.0486,0.05907 0.14607,0.467403 0.1755,0.992902 0.37998,1.489513 0.35058,0.964019 1.19789,1.9574 2.01582,2.015831 0.81798,0.05842 1.31446,-0.934679 1.34372,-2.424525 0,-0.204488 -0.0292,0.02895 0,-0.146351 0.0874,-4.148193 -0.23383,-8.3256795 0.20433,-12.4738711 a 1.2269308,1.2269308 0 0 0 -0.43776,-1.2558773 l 0.0315,-0.03144 c -0.002,-0.00321 -0.005,-0.00602 -0.007,-0.0092 l -0.22874,-0.076426 c -0.19718,-0.051123 -0.37259,-0.078224 -0.52685,-0.079137 z m 0.76318,0.1647788 c 0.008,0.011094 0.0178,0.019927 0.0263,0.03144 v -0.029269 l -0.0218,-0.00705 z"
         id="path6628" />
      <path
         style="display:inline;fill:#335899;stroke:#ffffff;stroke-width:2.11445;stroke-linejoin:round;stroke-miterlimit:4;stroke-dasharray:none;stroke-opacity:0.8;shape-rendering:crispEdges"
         d="m 122.1811,1.013539 c -0.87637,-0.0292145 -1.34389,0.5552787 -1.72367,1.2271693 a 8.5300889,8.5300889 0 0 0 -0.67159,1.6944046 20.740971,20.740971 0 0 0 -0.52575,2.7459532 c -0.14606,1.3145682 0.29201,2.3952622 1.60657,2.9503003 a 1.9572465,1.9572465 0 0 1 1.22716,1.4315156 18.024195,18.024195 0 0 1 0.35019,2.19091 1.7819707,1.7819707 0 0 1 -1.31445,1.898752 c -0.11685,0.05841 -0.40925,-0.116709 -0.40925,-0.204346 a 10.633401,10.633401 0 0 1 -0.11652,-1.665136 c -0.0293,-0.321341 0.0291,-0.672215 0,-0.993552 a 0.64267794,0.64267794 0 0 0 -0.49649,-0.584316 0.70110318,0.70110318 0 0 0 -0.78869,0.146352 1.8111833,1.8111833 0 0 0 -0.40922,0.73012 6.6020551,6.6020551 0 0 0 0.14636,3.447351 2.3370106,2.3370106 0 0 0 0.55448,0.93447 1.2561433,1.2561433 0 0 0 1.40225,0.409234 6.3391413,6.3391413 0 0 0 2.48306,-1.490055 2.9212634,2.9212634 0 0 0 0.75993,-1.489515 8.7345774,8.7345774 0 0 1 0.23361,-0.935011 v -0.08783 c -0.0725,-0.165731 -0.1034,-0.339014 -0.11597,-0.515476 a 7.6244972,7.6244972 0 0 1 -0.0596,-0.273186 8.2671752,8.2671752 0 0 0 -0.93449,-3.5053459 c -0.55508,-0.467394 -1.0807,-1.0226722 -1.84023,-1.2271603 a 0.61346527,0.61346527 0 0 1 -0.43853,-0.6423124 8.3840259,8.3840259 0 0 1 0.78869,-4.20674 c 0.23371,-0.4089766 0.64269,-0.4381895 0.84719,0 a 3.2426023,3.2426023 0 0 1 0.37998,1.1686293 c 0,0.8763787 -0.0877,1.752495 -0.14636,2.6288736 0,0.2044878 -0.087,0.379769 -0.087,0.5550452 0,0.1752753 -0.0586,0.4674644 0.20435,0.5843146 a 0.49661476,0.49661476 0 0 0 0.61355,-0.1458063 L 123.9343,7.586256 c 0.14526,-0.8473855 0.2945,-1.7117407 0.45636,-2.5659967 0.0207,-0.1778741 0.0486,-0.3550833 0.0986,-0.5301113 5e-5,-1.708e-4 -5e-5,-3.707e-4 0,-5.424e-4 V 3.818028 A 0.96401695,0.96401695 0 0 1 124.37862,3.4852182 5.4627628,5.4627628 0 0 1 124.285,3.175174 6.2807163,6.2807163 0 0 0 123.99287,2.386512 C 123.61293,1.6561951 123.05756,1.0427466 122.1812,1.0135348 Z"
         id="path6630" />
      <path
         style="display:inline;fill:#34599a;stroke:#ffffff;stroke-width:2.11445;stroke-linejoin:round;stroke-miterlimit:4;stroke-dasharray:none;stroke-opacity:0.8;shape-rendering:crispEdges"
         d="m 107.93694,2.0081749 a 0.84716638,0.84716638 0 0 0 -0.80005,0.6997685 c -0.0293,0.2337007 -0.0294,0.467152 -0.0585,0.7008519 -0.0874,1.9280318 -0.17532,3.8560882 -0.29217,5.8133341 a 10.66261,10.66261 0 0 1 -0.20431,1.3442476 v 5.170482 c 0.0848,0.13347 0.10797,0.25285 0.11163,0.38539 l 0.15122,0.520351 a 2.0740971,2.0740971 0 0 0 0.20436,0.642314 0.58425269,0.58425269 0 0 0 0.64288,0.409238 0.876379,0.876379 0 0 0 0.52576,-0.379967 6.3391413,6.3391413 0 0 0 0.35013,-1.05155 l 0.22064,-0.467237 h -0.0157 c 0.0292,-2.716773 0.087,-5.404551 0.087,-8.1213229 0,-1.781969 -0.058,-3.5640713 -0.087,-5.3168281 a 2.8920504,2.8920504 0 0 0 -0.58432,-0.3214285 0.84716638,0.84716638 0 0 0 -0.2515,-0.02765 z"
         id="path6632" />
      <path
         id="path6634"
         d="m 96.474079,2.9416169 c 0.02911,-0.029211 0.08758,-0.058423 0.08758,-0.1168498 0,-0.058421 0.350549,-0.8471668 0.905606,-0.6718908 0.555055,0.1752761 0.496613,0.6134645 0.496613,1.0516547 0,0.4381885 0,1.2853551 0,1.9572447 l -0.08758,8.7929963 c 0,0.555039 -0.02912,1.110081 -0.02912,1.665121 a 2.1033095,2.1033095 0 0 1 -0.555077,1.548269 v 0 c -0.555025,0.379766 -0.964016,0.05842 -1.343742,-0.32134 v 0 a 7.3907962,7.3907962 0 0 1 -0.08778,-1.110078 c 0.146064,-3.359452 0.321335,-6.6896894 0.496609,-10.0491414 0.05838,-0.8471647 0.08758,-1.6651191 0.116854,-2.5122839 a 0.1752758,0.1752758 0 0 0 0,-0.2337018 z"
         class="cls-6"
         style="display:inline;fill:#355999;stroke:#ffffff;stroke-width:2.11445;stroke-linejoin:round;stroke-miterlimit:4;stroke-dasharray:none;stroke-opacity:0.8;shape-rendering:crispEdges" />
      <path
         style="display:inline;fill:#345899;stroke:#ffffff;stroke-width:2.11445;stroke-linejoin:round;stroke-miterlimit:4;stroke-dasharray:none;stroke-opacity:0.8;shape-rendering:crispEdges"
         d="m 14.392373,0.5647332 c -0.290771,0.002321 -0.600782,0.0911499 -0.911164,0.27372803 A 3.3594531,3.3594531 0 0 0 12.078962,2.357247 c -0.262915,0.5842503 -0.409098,1.2272878 -0.613587,1.8407525 -0.04805,0.1441537 -0.07977,0.2567896 -0.104073,0.3555762 -0.01851,0.2423258 -0.05234,0.48397 -0.129548,0.725243 v 0.6423127 a 3.9144925,3.9144925 0 0 1 0.204348,0.5257743 2.5707121,2.5707121 0 0 0 1.606595,1.9572922 7.8289858,7.8289858 0 0 1 0.993554,0.4677757 0.9932294,0.9932294 0 0 1 0.584314,0.7593928 c -0.0095,0 -0.01917,4.384e-4 -0.02876,5.423e-4 a 2.7459873,2.7459873 0 0 1 0.378885,0.7003083 8.9682785,8.9682785 0 0 1 0.233616,3.067382 1.8403959,1.8403959 0 0 1 -0.70085,1.314439 c -0.292126,0.262912 -0.788781,0.380164 -0.847203,0.204889 a 1.431419,1.431419 0 0 1 -0.0293,-0.613586 c 0.05843,-0.438188 -0.262739,-0.671671 -0.467226,-0.99301 a 0.37976425,0.37976425 0 0 0 -0.555046,-0.02929 0.11685055,0.11685055 0 0 1 -0.175619,0.05796 c -0.817953,0.759527 -0.846746,1.665456 -0.613043,2.658687 a 5.5211876,5.5211876 0 0 0 0.262886,0.613585 c 1.811184,1.080866 4.702851,-0.175643 5.053406,-2.950845 A 11.509778,11.509778 0 0 0 16.957261,9.9234954 C 16.898835,9.6605951 16.869886,9.3684896 16.811459,9.105575 A 5.3751245,5.3751245 0 0 0 14.299133,6.5932466 h -0.0293 c -0.9932,-0.2629129 -1.080844,-0.3213495 -1.110059,-1.1100898 -0.02921,-0.7887409 -0.02913,-1.957326 0.584314,-2.8044924 a 1.8988214,1.8988214 0 0 1 0.467236,-0.4965046 0.35055158,0.35055158 0 0 1 0.467233,0.1165372 c 0.05842,0.3213387 0.117139,0.6429429 0.146352,0.9642817 0.02924,0.3213399 0.05815,0.7302687 0.145808,1.0808194 a 0.58425269,0.58425269 0 0 0 0.438499,0.2921572 0.55504003,0.55504003 0 0 0 0.379429,-0.2921572 5.0245729,5.0245729 0 0 0 0.02928,-2.6288739 C 15.576924,0.97183718 15.032067,0.55963405 14.392373,0.5647332 Z"
         id="path6636" />
      <path
         style="display:inline;fill:#345898;stroke:#ffffff;stroke-width:2.11445;stroke-linejoin:round;stroke-miterlimit:4;stroke-dasharray:none;stroke-opacity:0.8;shape-rendering:crispEdges"
         d="M 88.636137,0.97830644 A 0.93480428,0.93480428 0 0 0 87.798149,1.4807738 4.1774066,4.1774066 0 0 0 87.535261,2.269978 11.743478,11.743478 0 0 0 87.184563,3.9058421 c -0.262918,2.044883 -0.847209,4.031168 -1.402248,5.9884114 -0.02929,0.1460645 -0.08793,0.3211695 -0.117077,0.4672335 l -0.01947,-0.05852 c -0.0037,0.0268 -0.01673,0.103821 -0.0094,0.05852 0.0035,-0.02093 0.0055,-0.04006 0.0088,-0.06014 L 85.519483,9.9235351 C 85.110474,8.0247048 84.701755,6.0968196 84.263557,4.1979995 A 1.5482694,1.5482694 0 0 1 84.321529,3.1166379 0.70110318,0.70110318 0 0 0 84.029371,2.269978 2.8336255,2.8336255 0 0 0 83.036361,1.8022013 0.49661476,0.49661476 0 0 0 82.452046,2.269978 c 0,0.4089777 0.05854,0.8176512 0.08782,1.226627 0.175275,1.1977176 0.321223,2.3954391 0.496507,3.5931558 0.321343,0.5550404 0.233623,1.1687477 0.262889,1.7822128 0.11685,1.8988194 0.204468,3.7974914 0.292153,5.7255274 0.02923,0.671888 0.145923,1.372726 0.20435,2.073827 a 2.5122864,2.5122864 0 0 0 0.175078,0.672126 1.0224422,1.0224422 0 0 0 0.905742,0.759392 0.9932294,0.9932294 0 0 0 1.139361,-0.584315 c 0.116858,-0.204485 0.20458,-0.437824 0.321424,-0.642313 0.233698,-1.402206 0.496485,-2.833805 0.759394,-4.236011 0.08764,-0.467402 0.263119,-0.905517 0.379969,-1.343708 a 1.8988212,1.8988212 0 0 1 0,-0.409237 l 1.840214,-8.0335105 a 5.4919751,5.4919751 0 0 0 0.146349,-0.9637398 0.9932294,0.9932294 0 0 0 -0.730664,-0.9057425 0.93480428,0.93480428 0 0 0 -0.09648,-0.005952 z"
         id="path6638" />
      <path
         style="display:inline;fill:#345899;stroke:#ffffff;stroke-width:2.11445;stroke-linejoin:round;stroke-miterlimit:4;stroke-dasharray:none;stroke-opacity:0.8;shape-rendering:crispEdges"
         d="m 92.195445,1.7443414 c -0.147204,0.00597 -0.300321,0.036084 -0.453682,0.057993 l -0.02929,0.029263 a 13.379387,13.379387 0 0 0 -2.161644,4.4988966 19.718528,19.718528 0 0 0 -0.555039,5.549904 12.853556,12.853556 0 0 0 0.467234,2.746497 3.0673266,3.0673266 0 0 0 1.519327,2.073829 1.1685054,1.1685054 0 0 0 1.635873,-0.321428 5.082998,5.082998 0 0 0 0.525774,-0.963739 c 0.759519,-1.723546 1.372571,-3.827102 1.46024,-5.375373 0.08768,-1.5482659 0.17564,-3.0671621 0.204893,-4.6154313 A 3.1257517,3.1257517 0 0 0 93.465446,2.649532 2.9212634,2.9212634 0 0 1 92.85186,2.0652166 C 92.669279,1.7913482 92.440795,1.7343465 92.195457,1.7443322 Z m -0.0743,2.1610958 a 1.3729939,1.3729939 0 0 1 0.935012,1.0808196 0.84716637,0.84716637 0 0 1 0.05851,0.2628871 c -0.05842,3.0089 -0.05842,5.9889761 -1.372982,8.7641741 -0.02929,0.08763 -0.116766,0.146154 -0.233613,0.32143 -1.197685,-2.483075 -0.905976,-7.4788364 0.613077,-10.4293108 z"
         id="path6640" />
      <path
         style="display:inline;fill:#345899;stroke:#ffffff;stroke-width:2.11445;stroke-linejoin:round;stroke-miterlimit:4;stroke-dasharray:none;stroke-opacity:0.8;shape-rendering:crispEdges"
         d="M 8.7237557,1.2704642 C 7.5783009,1.2716545 6.4662811,1.415195 5.6227674,2.3865159 V 2.3572417 A 0.67189055,0.67189055 0 0 0 5.5934981,3.2044424 1.2269306,1.2269306 0 0 1 5.8271156,3.5551401 C 5.8563276,4.7820704 5.9441068,6.0091741 5.622768,7.2361044 V 7.6740696 C 5.564343,8.6965116 5.564542,9.7190081 5.4476897,10.741448 5.2139898,12.64027 5.4183937,14.538886 5.6813074,16.437708 A 1.372994,1.372994 0 0 0 7.4049825,17.635605 10.312062,10.312062 0 0 0 9.0408473,17.22637 8.2671752,8.2671752 0 0 0 10.296747,16.642594 0.93480428,0.93480428 0 0 0 10.676714,15.532505 0.78874112,0.78874112 0 0 0 9.8002417,14.977462 16.30065,16.30065 0 0 0 8.1351049,15.211079 0.40897688,0.40897688 0 0 1 7.6386002,14.860383 C 7.5217484,13.779518 7.3756538,12.377514 7.3464421,11.647196 7.3172286,10.91688 7.346137,10.916614 8.0180247,10.682915 l 1.052092,-0.408697 A 0.64267794,0.64267794 0 0 0 9.4495419,9.6020966 0.58425269,0.58425269 0 0 0 8.8652273,9.1055908 H 7.9014871 C 7.5217204,9.0763785 7.434252,8.9010987 7.434252,8.5505464 7.4050401,7.3528309 7.3464419,6.1258406 7.3464419,4.9281221 c 0,-0.5258265 0.029268,-1.0227131 0.029268,-1.5193268 C 7.9015397,3.0582434 8.4564796,3.1752359 8.9823067,3.2044478 H 9.1281148 A 1.0808676,1.0808676 0 0 0 10.121668,2.2114387 0.96401695,0.96401695 0 0 0 9.2159244,1.2764266 C 9.0516035,1.272775 8.8873917,1.270304 8.7237557,1.270474 Z"
         id="path6642" />
      <path
         id="path6644"
         style="display:inline;fill:#345899;stroke:#ffffff;stroke-width:2.11445;stroke-linejoin:round;stroke-miterlimit:4;stroke-dasharray:none;stroke-opacity:0.8;shape-rendering:crispEdges"
         d="m 1.4046426,1.8645358 c -0.042393,0.00271 -0.086954,0.010865 -0.1344252,0.025476 A 0.876379,0.876379 0 0 0 0.62736261,2.7079454 C 0.59814031,3.0877092 0.59803421,3.4675403 0.56882231,3.8473051 0.48118431,5.6584872 0.36441677,7.1189367 0.3352048,9.2806712 0.305993,11.442403 0.276723,13.575127 0.3059354,15.736863 c 0,1.051654 0.7305597,1.548196 1.7822148,1.343706 L 4.4248676,16.584063 A 0.64267794,0.64267794 0 0 0 4.5712173,16.350446 C 5.0678321,15.357218 4.717072,14.714524 3.636205,14.685312 H 2.3217675 c 0,-0.321341 -0.05854,-0.642944 -0.05854,-0.964283 V 9.6606384 C 2.2341101,7.2446636 2.2048952,4.8285109 2.2046877,2.4125363 2.2088166,2.4196711 2.1980138,2.4085513 2.0881499,2.2987084 1.8836606,2.0942175 1.70139,1.8453649 1.4046426,1.8645358 Z m 0.8000453,0.5479986 c -0.00122,-0.0021 0.00363,8.042e-4 0,-0.0043 0,0.00146 -4e-7,0.00292 0,0.0043 z m 0,-0.0043 c -7e-7,-0.00723 0,-0.014455 0,-0.021683 -0.022825,-0.011411 -0.010193,0.00724 0,0.021683 z" />
      <path
         id="path6646"
         d="m 104.30307,1.5101997 c 0.96402,1.6066931 0.70111,3.3010243 0.23371,4.9953574 a 0.26291372,0.26291372 0 0 1 -0.14606,0.2044882 0.9055916,0.9055916 0 0 1 -0.37975,0.087636 c -0.0875,-0.029211 -0.17531,-0.1168506 -0.17531,-0.1752756 0,-0.058421 -0.0291,-0.6426777 -0.0584,-0.9640166 0,-0.7887407 -0.0291,-1.6066942 -0.0874,-2.3954348 a 0.58425268,0.58425268 0 0 0 -0.29212,-0.4381885 c -0.11684,-0.029212 -0.35053,0.1168497 -0.43818,0.2336995 a 5.98859,5.98859 0 0 0 -1.1393,3.3886643 0.81795371,0.81795371 0 0 0 0.58423,0.876379 c 1.63593,0.6426765 2.24938,1.9864578 2.54151,3.5639364 a 7.5660718,7.5660718 0 0 1 0.0292,2.921263 5.1414235,5.1414235 0 0 1 -1.84037,3.038112 c -0.6719,0.175278 -1.34379,0.408978 -2.01569,0.525827 a 2.2493726,2.2493726 0 0 1 -2.395435,-3.096538 1.2853556,1.2853556 0 0 1 0.438194,-0.525827 0.73031583,0.73031583 0 0 1 1.197701,0.40898 c 0.0583,0.175271 0.0293,0.379762 0.0875,0.555038 0.0583,0.175277 0.32135,0.555039 0.70113,0.467401 a 1.8111832,1.8111832 0 0 0 1.57746,-1.402207 5.1706361,5.1706361 0 0 0 -0.26294,-3.680789 1.752758,1.752758 0 0 0 -0.84713,-0.876376 C 100.301,8.5504363 99.950475,7.411145 100.12574,6.0381511 a 8.2087499,8.2087499 0 0 1 1.25616,-3.3886621 2.6291372,2.6291372 0 0 1 0.43816,-0.5550411 c 0.70111,-0.7303145 1.48986,-1.0808661 2.48308,-0.5842513 z"
         class="cls-7"
         style="display:inline;fill:#345899;stroke:#ffffff;stroke-width:2.11445;stroke-linejoin:round;stroke-miterlimit:4;stroke-dasharray:none;stroke-opacity:0.8;shape-rendering:crispEdges" />
      <path
         id="path6648"
         d="m 97.963931,-0.38862247 c -0.146065,0.0584295 -0.32132,0.23370147 -0.496613,0.23370147 a 0.4381895,0.4381895 0 0 1 -0.438195,-0.5550408 0.40897687,0.40897687 0 0 1 0.496615,-0.3505516 c 0.292128,0.029214 0.467406,0.29212708 0.438193,0.67189093 z"
         class="cls-15"
         style="display:inline;fill:#45629d;stroke:#ffffff;stroke-width:2.11445;stroke-linejoin:round;stroke-miterlimit:4;stroke-dasharray:none;stroke-opacity:0.8;shape-rendering:crispEdges" />
      <path
         id="path6650"
         d="m 107.86702,0.137205 a 0.5258274,0.5258274 0 0 1 -0.58424,-0.4674018 0.49661475,0.49661475 0 0 1 0.43815,-0.46740293 0.58425268,0.58425268 0 0 1 0.6427,0.40897726 c 0.0585,0.23370147 -0.17528,0.49661518 -0.49661,0.52582747 z"
         class="cls-16"
         style="display:inline;fill:#4a669f;stroke:#ffffff;stroke-width:2.11445;stroke-linejoin:round;stroke-miterlimit:4;stroke-dasharray:none;stroke-opacity:0.8;shape-rendering:crispEdges" />
      <path
         style="display:inline;fill:#335899;stroke:#ffffff;stroke-width:2.11445;stroke-linejoin:round;stroke-miterlimit:4;stroke-dasharray:none;stroke-opacity:0.8;shape-rendering:crispEdges"
         d="m 62.890268,1.4093623 c -0.183443,0.00271 -0.372362,0.016721 -0.565894,0.042281 -0.788743,0.11685 -0.963731,0.4380847 -0.963731,1.0515496 0,0.6134646 -6.4e-5,1.1980183 -0.02929,1.811483 -0.175281,2.5707096 -0.379829,5.1120471 -0.58432,7.6535451 a 1.7235451,1.7235451 0 0 1 -0.1458,0.555045 l -0.02928,0.467237 a 7.4492213,7.4492213 0 0 0 -0.379985,3.301539 c 0.14607,1.197719 0.934657,1.898753 2.13237,1.898753 2.19095,-0.02923 3.79766,-1.139265 4.703251,-3.301 1.139289,-2.745988 1.051748,-5.6385105 0.876476,-8.5305598 A 1.7819706,1.7819706 0 0 0 67.290515,5.1618783 C 66.852326,4.4315629 66.443481,3.7014003 65.976071,3.0295096 65.209237,1.930385 64.174304,1.3901936 62.890268,1.4093644 Z m 0.231442,1.7209636 c 0.102681,0.00462 0.217877,0.030439 0.342027,0.074265 l 0.467231,0.2921569 c 0.876383,0.8763787 1.548289,1.9277186 1.665136,3.1546481 0.204495,2.1909452 0.146059,4.4114211 -0.555037,6.5147271 a 8.8806405,8.8806405 0 0 1 -0.817935,1.781675 1.5190568,1.5190568 0 0 1 -0.613044,0.525774 c -0.993228,0.408974 -1.139362,0.467706 -1.139362,-0.671583 V 9.3393494 h 0.05851 c 0.02929,-1.8696071 0.08728,-3.7393795 0.08728,-5.6089864 0,-0.4381901 0.197078,-0.6137271 0.505174,-0.6000338 z"
         id="path6652" />
      <path
         id="path6654"
         d="m 34.718601,14.071625 c -0.233707,0.613465 -0.467403,1.197716 -0.730321,1.781969 -1.051651,2.220163 -2.220162,2.599926 -4.411111,1.460634 l -0.379758,-0.146066 c -1.051664,-0.993228 -1.431417,-2.278583 -1.402206,-3.65158 0.02929,-1.372993 0.08771,-3.067324 0.175274,-4.5863795 0,-0.5842509 0.05841,-1.197716 0.08769,-1.8111806 v 0 c 0.262918,-1.6066952 0.350555,-3.2426004 1.314572,-4.7032318 0.642671,-1.0224426 1.34378,-1.81118317 2.570714,-2.04488357 h 0.0293 c 0.642672,-0.49661523 1.285345,-0.43818963 1.92803,0.0584295 v 0 c 1.226926,0.70110317 1.60669,1.51905687 1.168499,2.54149827 -0.438189,1.0224418 -0.817954,0.9932299 -1.402202,0.2044892 h 0.02928 c -0.32135,-0.2921273 -0.146076,-0.9640168 -0.817965,-0.9640168 -0.671894,0 -1.02245,0.3505506 -1.314581,0.8763782 -0.613462,1.0808667 -0.671882,2.3662219 -1.285345,3.4470882 a 0.14606316,0.14606316 0 0 0 -0.02929,0.2044882 53.079356,53.079356 0 0 0 0,7.7705557 c -0.05841,0.05842 -0.0293,0.116853 0.02929,0.175277 a 0.81795371,0.81795371 0 0 0 0.379765,0.701104 c 0.701097,0.555038 1.022439,0.496612 1.460629,-0.20449 a 7.0110318,7.0110318 0 0 0 0.964017,-2.599923 c 0.08771,-0.525829 0.0293,-0.613466 -0.467403,-0.817955 a 1.4022065,1.4022065 0 0 1 -0.525842,-0.204489 1.1685054,1.1685054 0 0 1 -0.379765,-0.525827 c -0.05841,-0.321337 0.175272,-0.525825 0.438191,-0.671889 l 0.116848,-0.05842 3.038118,-0.408975 a 0.78874108,0.78874108 0 0 1 0.788733,0.642677 0.81795371,0.81795371 0 0 1 -0.408978,0.817953 0.9055916,0.9055916 0 0 1 -0.379755,0.175277 0.58425268,0.58425268 0 0 0 -0.438188,0.613463 c -0.0293,0.642678 -0.08769,1.285357 -0.146073,1.928036 z"
         class="cls-7"
         style="display:inline;fill:#345899;stroke:#ffffff;stroke-width:2.11445;stroke-linejoin:round;stroke-miterlimit:4;stroke-dasharray:none;stroke-opacity:0.8;shape-rendering:crispEdges" />
      <path
         style="display:inline;fill:#345899;stroke:#ffffff;stroke-width:2.11445;stroke-linejoin:round;stroke-miterlimit:4;stroke-dasharray:none;stroke-opacity:0.8;shape-rendering:crispEdges"
         d="m 49.75836,0.69983717 c -0.240837,0.0116396 -0.495744,0.12401422 -0.725789,0.34310873 a 4.0021308,4.0021308 0 0 0 -1.080823,1.6065944 c -0.262919,0.7303146 -0.555017,1.4606502 -0.817934,2.2201777 -0.934804,1.2853566 -0.671897,2.8918022 -1.110088,4.294008 0.0293,0.087636 0.02971,0.1464082 -0.058,0.1756204 -0.964019,1.2561406 -0.789237,2.8040476 -1.08136,4.2354676 -0.05841,0.438189 -0.145923,0.905518 -0.204345,1.343708 a 12.795131,12.795131 0 0 0 -0.116544,1.519325 0.37976425,0.37976425 0 0 0 0.408695,0.437964 0.61346526,0.61346526 0 0 0 0.409239,-0.292156 c 0.204486,-0.438189 0.438191,-0.78824 0.555039,-1.401704 0.116859,-0.613466 0.262636,-1.256619 0.408707,-1.899297 a 0.75952847,0.75952847 0 0 1 0.584315,-0.525774 l 1.606595,-0.496504 c 0.292119,-0.08764 0.438506,0.02933 0.438506,0.321428 -0.05841,1.519055 -0.08791,3.067113 -0.146356,4.586166 a 2.5122864,2.5122864 0 0 0 0.292164,0.438506 0.93480427,0.93480427 0 0 0 1.080821,0.467238 c 0.467404,-0.08762 0.671751,-0.438287 0.759386,-0.876472 a 3.5347288,3.5347288 0 0 0 0.0293,-0.555048 c 0.0293,-4.060555 0.05851,-8.0918898 0.05851,-12.1524421 A 9.055916,9.055916 0 0 0 50.98985,3.2338548 12.678286,12.678286 0 0 0 50.668425,1.4516415 C 50.522361,0.94042022 50.159735,0.68043835 49.758352,0.69983717 Z m -0.813056,3.96553353 0.116531,0.4672354 c 0,1.6943318 0.02929,3.3595522 0.02929,5.0246719 0,0.613465 -0.0582,0.671866 -0.700848,0.817931 l -1.168636,0.204347 c -0.05841,-0.146063 -0.14629,-0.23379 -0.117077,-0.321429 0.555036,-1.8988163 1.139372,-3.7974305 1.694408,-5.6962508 0.0074,-0.012883 0.0155,-0.018639 0.02329,-0.029274 h -0.02329 c 0.05841,-0.1460642 0.08793,-0.3211733 0.146346,-0.4672355 z"
         id="path6656" />
      <path
         style="display:inline;fill:#335899;stroke:#ffffff;stroke-width:2.11445;stroke-linejoin:round;stroke-miterlimit:4;stroke-dasharray:none;stroke-opacity:0.8;shape-rendering:crispEdges"
         d="m 39.807115,0.61040111 c -0.52035,0.0141509 -1.086359,0.12564021 -1.699822,0.34473508 A 0.75952847,0.75952847 0 0 0 37.581509,1.568721 c 0,0.1752761 -0.02927,0.3505551 -0.02927,0.5550441 -0.146058,2.6291355 -0.321112,5.2872964 -0.437958,7.9164319 -0.05841,2.103307 -0.0293,4.177261 -0.0293,6.280571 l 0.204347,0.146349 c 0.905592,0.43819 1.460471,0.204627 1.577317,-0.759391 0.0293,-0.408976 0,-0.81825 0,-1.256441 -0.02927,-1.022443 -0.08728,-2.015671 -0.116531,-3.038112 a 5.6380382,5.6380382 0 0 1 0.02929,-0.700853 c 0.0293,-0.262913 0.321143,-0.467291 0.730123,-0.496506 a 0.43818951,0.43818951 0 0 1 0.525772,0.350157 c 0.496616,1.840395 0.992958,3.651514 1.518783,5.49191 0.204492,0.350553 0.409154,0.730753 0.642862,1.052091 a 0.84716637,0.84716637 0 0 0 1.110087,0.292157 0.93480427,0.93480427 0 0 0 0.40924,-1.081361 l -0.08779,-0.262887 C 43.044226,14.451186 42.401362,12.844733 41.875537,11.208826 41.64183,10.536935 41.057518,9.8649994 41.291227,9.251536 41.52492,8.6380703 42.138738,8.170712 42.576929,7.615672 l 1.110087,-2.2201784 c 0.02929,-0.55504 0.02929,-1.1100943 0.02929,-1.665134 -0.05841,-0.029211 0.08758,0.058623 -0.02929,-0.1750779 C 43.570173,3.3215811 43.423905,3.0875306 43.307055,2.8246181 42.51831,1.4005011 41.368178,0.5679513 39.807126,0.61040111 Z M 39.568081,2.1237651 A 2.5122864,2.5122864 0 0 1 41.9926,4.2561337 1.9280338,1.9280338 0 0 1 41.758989,5.3076834 21.442071,21.442071 0 0 1 40.006041,7.8200196 C 39.743134,8.1705705 39.305036,8.404365 38.954495,8.6964909 38.48709,8.2875149 38.808567,7.7615893 38.750144,7.2649747 c -0.05841,-0.4966137 0,-1.110093 0,-1.6651338 h -0.02928 V 2.9416976 c 0,-0.6134647 0.233739,-0.8179325 0.847199,-0.8179325 z"
         id="path6658" />
      <path
         id="path6660"
         d="m 71.731006,6.0381543 c 1.168498,0.6134648 1.694324,1.6943322 2.249365,2.80441 a 18.403959,18.403959 0 0 1 0,5.5211847 c -0.146061,0.292127 -0.262908,0.584254 -0.379756,0.87638 a 5.4335498,5.4335498 0 0 1 -1.898831,2.395434 c -1.02244,0.75953 -2.103306,0.671893 -2.979684,-0.292125 a 4.2358319,4.2358319 0 0 1 -0.759534,-1.168504 1.3145683,1.3145683 0 0 1 0.116861,-1.343783 0.87637898,0.87637898 0 0 1 1.519051,-0.05841 c 0.116851,0.175276 0.204486,0.408976 0.321343,0.613467 0.116849,0.204487 0.525828,0.408974 0.905593,0.05841 a 3.3010273,3.3010273 0 0 0 0.87637,-1.548268 9.6109567,9.6109567 0 0 0 0.262918,-3.768429 C 71.935434,9.9234334 71.877128,9.6897301 71.818643,9.4560306 A 2.6583496,2.6583496 0 0 0 70.504072,7.7324865 C 69.364773,7.0898077 69.101865,6.4179193 69.33556,5.1617757 a 6.3975662,6.3975662 0 0 1 1.752761,-3.2718135 2.6583496,2.6583496 0 0 1 0.934804,-0.5842525 0.9055916,0.9055916 0 0 1 1.139298,0.5842525 1.6943327,1.6943327 0 0 1 -0.175281,1.3437807 0.4381895,0.4381895 0 0 1 -0.701098,0.1752759 C 71.964702,3.2337429 71.760218,3.2921686 71.614147,3.5842946 a 11.480561,11.480561 0 0 0 -0.584248,1.5774811 0.81795371,0.81795371 0 0 0 0.08759,0.6426777 c 0.116848,0.1460628 0.408977,0.1752761 0.61346,0.2337009 z"
         class="cls-7"
         style="display:inline;fill:#345899;stroke:#ffffff;stroke-width:2.11445;stroke-linejoin:round;stroke-miterlimit:4;stroke-dasharray:none;stroke-opacity:0.8;shape-rendering:crispEdges" />
      <path
         style="display:inline;fill:#345899;stroke:#ffffff;stroke-width:2.11445;stroke-linejoin:round;stroke-miterlimit:4;stroke-dasharray:none;stroke-opacity:0.8;shape-rendering:crispEdges"
         d="m 58.371863,1.3489167 c -0.400248,0.00398 -0.710723,0.2963771 -0.83853,0.8623806 -0.05841,0.2629136 -0.02887,0.4381661 -0.08728,0.8179306 -0.05841,0.3797645 -0.145904,0.7302672 -0.20435,1.0808197 a 0.14606318,0.14606318 0 0 1 -0.0293,0.2628886 c -6.76e-4,0.00398 -0.0014,0.00793 -0.0021,0.011925 a 35.551775,35.551775 0 0 1 -0.319235,5.5092574 c -0.09046,0.057541 -0.158688,0.07303 -0.214641,0.06558 a 1.1685056,1.1685056 0 0 0 0.03905,0.1387604 c 0.03232,0.05381 0.02318,0.09455 0.0098,0.12521 h -5.37e-4 c -0.02191,-0.0045 -0.03795,-0.02281 -0.03796,-0.06665 a 5.2290615,5.2290615 0 0 1 -0.025,-0.2011041 C 56.530079,9.9262489 56.475462,9.7526419 56.394524,9.6312308 l -1.227176,-3.6517 C 55.060009,5.6575213 55.000637,5.3356313 54.92397,5.013622 54.91707,5.004742 54.91137,4.995378 54.9045,4.98652 h 0.01352 c -0.0047,-0.019524 -0.0088,-0.039014 -0.01352,-0.058539 0.0052,-2.529e-4 0.01,7.351e-4 0.01516,5.411e-4 -0.0098,-0.036474 -0.01741,-0.073862 -0.02659,-0.1105763 L 53.831208,1.9310637 c -0.01261,-0.013606 -0.02381,-0.027728 -0.03688,-0.041197 h 0.02164 l -0.01083,-0.029269 a 0.5258274,0.5258274 0 0 0 -0.36148,-0.2336163 c -0.05841,0.029211 -0.116648,0.029095 -0.175073,-0.05854 a 0.35055158,0.35055158 0 0 0 -0.07646,-0.058539 h -0.346909 a 0.35055158,0.35055158 0 0 0 -0.102446,0.08781 c -0.350525,0.3797647 -0.321456,0.8470347 -0.350669,1.314438 -0.175274,2.9504746 -0.554768,5.8424305 -0.700852,8.7929056 a 32.630512,32.630512 0 0 0 0.08728,4.469632 1.8988214,1.8988214 0 0 0 0.233618,0.788661 0.78874113,0.78874113 0 0 0 1.372974,-0.0293 1.3437814,1.3437814 0 0 0 0.175622,-0.671584 c 0,-0.555038 -0.0293,-1.110072 -0.0293,-1.665136 0,-2.483073 0.02936,-4.9368548 0.05852,-7.4199259 0.0076,-0.00943 0.01091,-0.019611 0.01731,-0.029269 h -0.01731 l 0.08728,-0.4672331 a 4.1481938,4.1481938 0 0 1 0.03688,0.1143695 c 0.0014,-0.00653 0.0021,-0.013579 0.0038,-0.020051 a 0.46740214,0.46740214 0 0 0 -0.0033,0.021681 4.1481938,4.1481938 0 0 1 0.108949,0.3512406 h -0.02276 a 0.46740214,0.46740214 0 0 0 0.02276,0.029269 c 0.52583,1.5482696 1.080936,3.0966099 1.13936,4.7325159 v -0.02931 l 0.99301,3.709696 c 0.05843,0.262915 0.08794,0.525751 0.146351,0.788664 a 5.2290615,5.2290615 0 0 0 0.350156,0.701394 c 0.438187,0.67189 1.22737,0.584021 1.607136,-0.11708 a 4.1774066,4.1774066 0 0 0 0.228196,-0.624424 0.17527581,0.17527581 0 0 1 0.03471,-0.193509 c 6.78e-4,-0.01052 0.0019,-0.02089 0.0027,-0.03145 a 0.84716638,0.84716638 0 0 1 -0.0027,0.0021 c -0.08762,-2.190946 0.145666,-4.381781 0.350154,-6.5727288 L 59.111149,4.9571443 C 59.168529,4.354346 59.087209,3.7515672 59.41686,3.2041985 H 59.40332 V 1.8313101 L 59.169738,1.6562511 C 58.884916,1.4481109 58.612011,1.3465202 58.371863,1.3489167 Z m -2.269504,15.0301193 -0.03419,-0.01407 c 0.01167,0.01391 0.02108,0.02845 0.03309,0.04228 a 13.174901,13.174901 0 0 1 10e-4,-0.02822 z"
         id="path6662" />
    </g>
  </g>
  <path
     id="path5049"
     d="m 36.918691,4.2231459 a 1.9330816,1.9330816 0 0 0 -1.732877,1.0390532 8.6384587,8.6384587 0 0 0 -0.543625,1.6319942 24.284338,24.284338 0 0 0 -0.725208,3.3828037 c -0.543687,4.228615 -1.751943,8.336054 -2.899708,12.383435 -0.06057,0.302048 -0.181826,0.664147 -0.242104,0.966193 l -0.04026,-0.121011 c -0.0076,0.05542 -0.0346,0.214692 -0.01942,0.121011 0.0072,-0.04328 0.01136,-0.08284 0.01818,-0.124357 L 30.473761,22.720985 C 29.627972,18.794394 28.782782,14.80772 27.876632,10.88115 A 3.2016661,3.2016661 0 0 1 27.996507,8.6450019 1.4498112,1.4498112 0 0 0 27.392353,6.8941933 5.8596538,5.8596538 0 0 0 25.338908,5.9268789 1.0269496,1.0269496 0 0 0 24.130604,6.8941933 c 0,0.8457246 0.121053,1.6908226 0.181599,2.5365426 0.362452,2.4767591 0.664259,4.9535281 1.026727,7.4302871 0.664506,1.147769 0.48311,2.416854 0.54363,3.685438 0.241633,3.926569 0.422819,7.852833 0.604143,11.839818 0.06044,1.389396 0.301753,2.838659 0.422576,4.288466 a 5.1951567,5.1951567 0 0 0 0.362043,1.38989 2.1143081,2.1143081 0 0 0 1.872983,1.570346 2.053899,2.053899 0 0 0 2.356084,-1.208305 c 0.241652,-0.422855 0.423053,-0.905376 0.664674,-1.328238 0.483264,-2.899623 1.026681,-5.860027 1.57035,-8.759648 0.181227,-0.966539 0.544105,-1.872518 0.785738,-2.778653 a 3.9265722,3.9265722 0 0 1 0,-0.846261 L 38.32653,8.1013789 a 11.356855,11.356855 0 0 0 0.302634,-1.9929176 2.053899,2.053899 0 0 0 -1.51094,-1.8729851 1.9330816,1.9330816 0 0 0 -0.199508,-0.012394 z"
     style="display:inline;fill:#345898;stroke:#ffffff;stroke-width:5.02708;stroke-linejoin:round;stroke-dasharray:none;stroke-opacity:0.666667;shape-rendering:crispEdges" />
  <path
     style="display:inline;fill:#345899;stroke:#ffffff;stroke-width:5.02708;stroke-linejoin:round;stroke-dasharray:none;stroke-opacity:0.666667;shape-rendering:crispEdges"
     class="cls-7"
     d="m 18.024269,31.690008 c -0.483283,1.268584 -0.966543,2.476757 -1.510231,3.684934 -2.174708,4.591075 -4.591073,5.376386 -9.1217371,3.020444 l -0.7853,-0.30205 C 4.4322634,36.03944 3.6469735,33.381454 3.7073777,30.542235 c 0.060567,-2.839212 0.1813717,-6.342919 0.3624501,-9.484174 0,-1.208173 0.1207836,-2.476756 0.1813304,-3.74534 v 0 c 0.5436877,-3.322484 0.7249127,-6.705372 2.7184017,-9.7258111 1.32898,-2.1143094 2.7788035,-3.745346 5.3159811,-4.228615 h 0.06059 c 1.328981,-1.0269505 2.657965,-0.9061324 3.986973,0.120827 v 0 c 2.537159,1.4498112 3.322474,3.1412576 2.416338,5.255564 -0.906131,2.1143071 -1.691446,2.0539001 -2.899613,0.422863 h 0.06055 c -0.664517,-0.60409 -0.302067,-1.9934906 -1.691467,-1.9934906 -1.389411,0 -2.114326,0.7249036 -2.718423,1.8122626 -1.268579,2.2351241 -1.389385,4.8931101 -2.6579638,7.1282311 a 0.30204398,0.30204398 0 0 0 -0.06057,0.422863 109.76279,109.76279 0 0 0 0,16.068731 c -0.120783,0.120804 -0.06059,0.241639 0.06057,0.362454 a 1.6914464,1.6914464 0 0 0 0.7853142,1.449813 c 1.4497986,1.147764 2.1143036,1.026944 3.0204366,-0.422865 a 14.498112,14.498112 0 0 0 1.99349,-5.37638 c 0.181371,-1.087362 0.06059,-1.268585 -0.966542,-1.691448 a 2.8996228,2.8996228 0 0 1 -1.087389,-0.422864 2.4163521,2.4163521 0 0 1 -0.785317,-1.087357 c -0.120784,-0.664493 0.362446,-1.087354 0.906135,-1.3894 l 0.241632,-0.120804 6.282523,-0.845719 a 1.6310376,1.6310376 0 0 1 1.631021,1.328992 1.6914464,1.6914464 0 0 1 -0.845727,1.691444 1.8726727,1.8726727 0 0 1 -0.785294,0.362456 1.208176,1.208176 0 0 0 -0.906129,1.268579 c -0.06059,1.328994 -0.181331,2.65799 -0.302065,3.986986 z"
     id="path5065" />
  <g
     id="g2">
    <path
       id="path1"
       d="m 36.918691,4.2231459 a 1.9330816,1.9330816 0 0 0 -1.732877,1.0390532 8.6384587,8.6384587 0 0 0 -0.543625,1.6319942 24.284338,24.284338 0 0 0 -0.725208,3.3828037 c -0.543687,4.228615 -1.751943,8.336054 -2.899708,12.383435 -0.06057,0.302048 -0.181826,0.664147 -0.242104,0.966193 l -0.04026,-0.121011 c -0.0076,0.05542 -0.0346,0.214692 -0.01942,0.121011 0.0072,-0.04328 0.01136,-0.08284 0.01818,-0.124357 L 30.473761,22.720985 C 29.627972,18.794394 28.782782,14.80772 27.876632,10.88115 A 3.2016661,3.2016661 0 0 1 27.996507,8.6450019 1.4498112,1.4498112 0 0 0 27.392353,6.8941933 5.8596538,5.8596538 0 0 0 25.338908,5.9268789 1.0269496,1.0269496 0 0 0 24.130604,6.8941933 c 0,0.8457246 0.121053,1.6908226 0.181599,2.5365426 0.362452,2.4767591 0.664259,4.9535281 1.026727,7.4302871 0.664506,1.147769 0.48311,2.416854 0.54363,3.685438 0.241633,3.926569 0.422819,7.852833 0.604143,11.839818 0.06044,1.389396 0.301753,2.838659 0.422576,4.288466 a 5.1951567,5.1951567 0 0 0 0.362043,1.38989 2.1143081,2.1143081 0 0 0 1.872983,1.570346 2.053899,2.053899 0 0 0 2.356084,-1.208305 c 0.241652,-0.422855 0.423053,-0.905376 0.664674,-1.328238 0.483264,-2.899623 1.026681,-5.860027 1.57035,-8.759648 0.181227,-0.966539 0.544105,-1.872518 0.785738,-2.778653 a 3.9265722,3.9265722 0 0 1 0,-0.846261 L 38.32653,8.1013789 a 11.356855,11.356855 0 0 0 0.302634,-1.9929176 2.053899,2.053899 0 0 0 -1.51094,-1.8729851 1.9330816,1.9330816 0 0 0 -0.199508,-0.012394 z"
       style="display:inline;fill:#345898;stroke:none;stroke-width:0.604088;stroke-opacity:0.972549;shape-rendering:crispEdges" />
    <path
       style="display:inline;fill:#345899;stroke:none;stroke-width:0.604088;stroke-opacity:0.972549;shape-rendering:crispEdges"
       class="cls-7"
       d="m 18.024269,31.690008 c -0.483283,1.268584 -0.966543,2.476757 -1.510231,3.684934 -2.174708,4.591075 -4.591073,5.376386 -9.1217371,3.020444 l -0.7853,-0.30205 C 4.4322634,36.03944 3.6469735,33.381454 3.7073777,30.542235 c 0.060567,-2.839212 0.1813717,-6.342919 0.3624501,-9.484174 0,-1.208173 0.1207836,-2.476756 0.1813304,-3.74534 v 0 c 0.5436877,-3.322484 0.7249127,-6.705372 2.7184017,-9.7258111 1.32898,-2.1143094 2.7788035,-3.745346 5.3159811,-4.228615 h 0.06059 c 1.328981,-1.0269505 2.657965,-0.9061324 3.986973,0.120827 v 0 c 2.537159,1.4498112 3.322474,3.1412576 2.416338,5.255564 -0.906131,2.1143071 -1.691446,2.0539001 -2.899613,0.422863 h 0.06055 c -0.664517,-0.60409 -0.302067,-1.9934906 -1.691467,-1.9934906 -1.389411,0 -2.114326,0.7249036 -2.718423,1.8122626 -1.268579,2.2351241 -1.389385,4.8931101 -2.6579638,7.1282311 a 0.30204398,0.30204398 0 0 0 -0.06057,0.422863 109.76279,109.76279 0 0 0 0,16.068731 c -0.120783,0.120804 -0.06059,0.241639 0.06057,0.362454 a 1.6914464,1.6914464 0 0 0 0.7853142,1.449813 c 1.4497986,1.147764 2.1143036,1.026944 3.0204366,-0.422865 a 14.498112,14.498112 0 0 0 1.99349,-5.37638 c 0.181371,-1.087362 0.06059,-1.268585 -0.966542,-1.691448 a 2.8996228,2.8996228 0 0 1 -1.087389,-0.422864 2.4163521,2.4163521 0 0 1 -0.785317,-1.087357 c -0.120784,-0.664493 0.362446,-1.087354 0.906135,-1.3894 l 0.241632,-0.120804 6.282523,-0.845719 a 1.6310376,1.6310376 0 0 1 1.631021,1.328992 1.6914464,1.6914464 0 0 1 -0.845727,1.691444 1.8726727,1.8726727 0 0 1 -0.785294,0.362456 1.208176,1.208176 0 0 0 -0.906129,1.268579 c -0.06059,1.328994 -0.181331,2.65799 -0.302065,3.986986 z"
       id="path2" />
  </g>
</svg>
